<?xml version="1.0" standalone="no"?>
<!DOCTYPE svg PUBLIC "-//W3C//DTD SVG 20010904//EN"
 "http://www.w3.org/TR/2001/REC-SVG-20010904/DTD/svg10.dtd">
<svg version="1.0" xmlns="http://www.w3.org/2000/svg"
 width="512.000000pt" height="512.000000pt" viewBox="0 0 512.000000 512.000000"
 preserveAspectRatio="xMidYMid meet">

<g transform="translate(0.000000,512.000000) scale(0.100000,-0.100000)"
fill="#000000" stroke="none">
<path d="M2350 4590 c-619 -75 -1145 -391 -1480 -890 -465 -691 -465 -1589 0
-2280 578 -860 1722 -1149 2637 -665 860 455 1275 1425 1013 2369 -26 95 -40
127 -66 155 -29 32 -38 36 -83 36 -41 0 -55 -5 -80 -29 -46 -44 -47 -74 -8
-211 46 -160 67 -283 74 -445 21 -486 -163 -966 -506 -1323 -236 -246 -573
-433 -911 -505 -315 -68 -633 -51 -943 49 -120 39 -329 142 -442 218 -436 291
-726 773 -784 1303 -63 571 164 1153 599 1536 349 307 804 469 1260 449 162
-7 285 -28 445 -74 137 -39 167 -38 211 8 24 25 29 39 29 80 0 45 -4 54 -36
83 -28 26 -60 40 -155 66 -190 52 -309 70 -514 75 -102 2 -219 0 -260 -5z"/>
<path d="M3875 4431 c-11 -5 -31 -21 -45 -36 -24 -26 -25 -32 -28 -190 l-3
-164 -164 -3 -165 -3 -32 -33 c-28 -28 -33 -39 -33 -82 0 -43 5 -54 33 -82
l32 -33 165 -3 164 -3 3 -164 3 -165 33 -32 c28 -28 39 -33 82 -33 43 0 54 5
82 33 l33 32 3 165 3 164 164 3 165 3 32 33 c28 28 33 39 33 82 0 43 -5 54
-33 82 l-32 33 -165 3 -164 3 -3 164 -3 165 -31 31 c-33 33 -92 46 -129 30z"/>
<path d="M2380 3781 c-186 -40 -339 -122 -468 -251 -168 -168 -258 -373 -269
-610 -12 -258 84 -505 266 -687 l70 -70 -69 -26 c-190 -70 -366 -221 -471
-405 -66 -115 -62 -199 11 -237 69 -36 134 -6 179 82 85 170 223 289 406 351
l80 27 445 0 445 0 80 -27 c183 -62 321 -181 406 -351 45 -88 110 -118 179
-82 68 35 77 112 25 211 -99 189 -267 342 -467 424 l-89 37 33 27 c53 44 136
146 180 220 212 360 153 819 -143 1115 -217 217 -536 314 -829 252z m318 -237
c152 -31 307 -127 398 -247 209 -276 185 -654 -57 -896 -334 -333 -895 -234
-1095 194 -61 132 -78 279 -48 423 75 366 433 601 802 526z"/>
</g>
</svg>
